<svg xmlns="http://www.w3.org/2000/svg" viewBox="0 0 225.89 188.53"><defs><style>.cls-1{isolation:isolate;}.cls-2{fill:#34d6b7;}.cls-3{fill:#ffc550;}.cls-4{fill:#345184;}.cls-5{fill:#fff;}.cls-6{fill:#bcf1f7;}.cls-7{fill:#34ced6;}.cls-8{fill:#e2e2e2;}.cls-9{fill:#e3fff0;}.cls-10{fill:#cff6ff;}.cls-11{fill:#a7e1ea;}.cls-12{fill:#ebfff8;}.cls-13{fill:#d3e8f2;}.cls-14{fill:#a5efd3;}.cls-15{fill:#80ffce;}.cls-15,.cls-27{opacity:0.5;}.cls-16{fill:#95efc6;}.cls-17{fill:#6bdda6;}.cls-18{fill:#eff4f4;}.cls-19{fill:#c1d6cf;}.cls-20{fill:#96daed;}.cls-21{fill:#f8fffb;}.cls-22,.cls-27{fill:#ffe1ab;}.cls-23{fill:#f5feff;}.cls-23,.cls-24{opacity:0.3;}.cls-24{fill:#375e82;mix-blend-mode:multiply;}.cls-25{fill:#32d898;}.cls-26{fill:#d3f4e8;}.cls-28{opacity:0.7;}.cls-29{fill:#d6ddea;}.cls-30{fill:#ffaf84;}.cls-31{fill:#e07127;}.cls-32{fill:#ed8c62;}.cls-33{fill:#25bfbf;}.cls-34{fill:#234063;}.cls-35{fill:#7095c1;}</style></defs><title>signin_3</title><g class="cls-1"><g id="Capa_2" data-name="Capa 2"><g id="Objects"><path class="cls-2" d="M28.66,125.64a2.08,2.08,0,1,1-2.07-2.08A2.08,2.08,0,0,1,28.66,125.64Z"/><path class="cls-3" d="M15.7,125.07A5.25,5.25,0,1,1,21,119.83,5.25,5.25,0,0,1,15.7,125.07Zm0-7.75a2.51,2.51,0,1,0,2.51,2.51A2.51,2.51,0,0,0,15.7,117.32Z"/><path class="cls-2" d="M166.89,22.21h-1.76V24a1.45,1.45,0,1,1-2.89,0V22.21h-1.77a1.45,1.45,0,0,1,0-2.89h1.77V17.56a1.45,1.45,0,1,1,2.89,0v1.76h1.76a1.45,1.45,0,0,1,0,2.89Z"/><path class="cls-4" d="M181.09,13A2.08,2.08,0,1,1,179,11,2.08,2.08,0,0,1,181.09,13Z"/><path class="cls-4" d="M73.79,59.68A43.54,43.54,0,0,1,105,1L109.6,22.2A21.87,21.87,0,0,0,92.4,43.55,21.56,21.56,0,0,0,94,51.65Z"/><path class="cls-5" d="M83.45,74.35c-.34-.34-.66-.69-1-1L98.3,58.49A21.86,21.86,0,1,0,123.93,24l9.6-19.45a43.06,43.06,0,0,1,11.53,8.26A43.56,43.56,0,0,1,83.45,74.35Z"/><path class="cls-2" d="M114.27,21.69a21.56,21.56,0,0,0-4.67.51L105,1A43.42,43.42,0,0,1,133.53,4.5L123.93,24A21.73,21.73,0,0,0,114.27,21.69Z"/><path class="cls-6" d="M82.46,73.3a43,43,0,0,1-8.67-13.62l20.17-8a21.57,21.57,0,0,0,4.34,6.84Z"/><rect class="cls-7" x="111.35" y="29.37" width="102.17" height="154.81" rx="4.45"/><path class="cls-8" d="M101,188.37H223.82a2.07,2.07,0,0,0,2.07-2.07h0a2.07,2.07,0,0,0-2.07-2.07H101A2.07,2.07,0,0,0,99,186.3h0A2.07,2.07,0,0,0,101,188.37Z"/><path class="cls-7" d="M213.52,33.84V44.71H111.35V33.84a4.46,4.46,0,0,1,4.45-4.47h93.26A4.47,4.47,0,0,1,213.52,33.84Z"/><path class="cls-9" d="M162.43,180.35h0a4.19,4.19,0,0,1-4.19-4.18h0a4.19,4.19,0,0,1,4.19-4.19h0a4.19,4.19,0,0,1,4.19,4.19h0A4.19,4.19,0,0,1,162.43,180.35Z"/><path class="cls-9" d="M123.11,38.61h0a1.71,1.71,0,0,1-1.71-1.7h0a1.71,1.71,0,0,1,1.71-1.7h0a1.7,1.7,0,0,1,1.7,1.7h0A1.7,1.7,0,0,1,123.11,38.61Z"/><path class="cls-9" d="M128.53,38.61h0a1.7,1.7,0,0,1-1.7-1.7h0a1.7,1.7,0,0,1,1.7-1.7h0a1.7,1.7,0,0,1,1.7,1.7h0A1.7,1.7,0,0,1,128.53,38.61Z"/><rect class="cls-10" x="112.93" y="44.72" width="98.99" height="122.81"/><rect class="cls-11" x="97.87" y="71.31" width="32.78" height="14.54"/><rect class="cls-11" x="117.87" y="108.35" width="32.78" height="14.54"/><rect class="cls-11" x="107.87" y="89.83" width="32.78" height="14.54"/><rect class="cls-12" x="117.87" y="49.85" width="88.4" height="16.54"/><rect class="cls-13" x="191.87" y="52.25" width="11.75" height="11.75"/><rect class="cls-14" x="123.58" y="52.96" width="25.44" height="2.27"/><rect class="cls-14" x="123.58" y="56.99" width="25.44" height="2.27"/><rect class="cls-14" x="123.58" y="61.02" width="17.13" height="2.27"/><rect class="cls-15" x="150.65" y="120.52" width="72.32" height="33.93"/><rect class="cls-9" x="157.86" y="132.28" width="28.38" height="2.86"/><rect class="cls-9" x="157.86" y="137.37" width="21.64" height="2.86"/><rect class="cls-9" x="157.86" y="142.47" width="14.6" height="2.86"/><rect class="cls-9" x="174.26" y="142.47" width="8.7" height="2.86"/><rect class="cls-9" x="157.86" y="147.56" width="19.73" height="2.86"/><rect class="cls-16" x="117.87" y="128.36" width="26.1" height="26.1"/><circle class="cls-17" cx="130.92" cy="141.47" r="8.18" transform="translate(-61.69 134.01) rotate(-45)"/><path class="cls-18" d="M137.12,141.47a6.2,6.2,0,0,1-2.53,5,6,6,0,0,1-1.5.81,5.94,5.94,0,0,1-.75.23,3.4,3.4,0,0,1-.46.09,6,6,0,0,1-1,.08,6.2,6.2,0,0,1-6.2-6.21,6.23,6.23,0,0,1,2.77-5.16,7.33,7.33,0,0,1,.67-.39,6.3,6.3,0,0,1,1.62-.54,6.12,6.12,0,0,1,1.14-.1,6.18,6.18,0,0,1,5.77,3.95A6,6,0,0,1,137.12,141.47Z"/><path class="cls-19" d="M130.92,142.19a.72.72,0,0,1-.72-.72v-4a.72.72,0,1,1,1.43,0v4A.71.71,0,0,1,130.92,142.19Z"/><path class="cls-19" d="M130.92,142.19a.73.73,0,0,1-.61-.33.72.72,0,0,1,.23-1l2.06-1.3a.72.72,0,1,1,.76,1.22l-2.06,1.29A.67.67,0,0,1,130.92,142.19Z"/><rect class="cls-20" x="154.69" y="71.31" width="51.58" height="51.58"/><path class="cls-21" d="M180.48,99.43h0a6.57,6.57,0,0,1-6.57-6.57V88.92a6.57,6.57,0,0,1,6.57-6.57h0a6.57,6.57,0,0,1,6.57,6.57v3.94A6.57,6.57,0,0,1,180.48,99.43Z"/><path class="cls-21" d="M180.48,96.05a15.52,15.52,0,0,0-14,8.88,4.63,4.63,0,0,0,4.17,6.62h19.7a4.63,4.63,0,0,0,4.16-6.62A15.5,15.5,0,0,0,180.48,96.05Z"/><rect class="cls-22" x="117.87" y="156.18" width="88.4" height="4.21"/><path class="cls-7" d="M212.89,69.64h0V54.27h0a2,2,0,0,1,2,2V67.66A2,2,0,0,1,212.89,69.64Z"/><path class="cls-7" d="M212.89,86.8h0V71.43h0a2,2,0,0,1,2,2v11.4A2,2,0,0,1,212.89,86.8Z"/><polygon class="cls-23" points="170.37 44.72 112.93 102.15 112.93 71.28 139.49 44.72 170.37 44.72"/><polygon class="cls-23" points="191.87 44.72 112.93 123.64 112.93 108.2 176.43 44.72 191.87 44.72"/><path class="cls-24" d="M133.42,133.11v13.24a1.28,1.28,0,0,1-.87,1.2v36.63H115.8a4.45,4.45,0,0,1-4.45-4.45V106.12h18.11a3.09,3.09,0,0,1,3.09,3.1v22.69A1.28,1.28,0,0,1,133.42,133.11Z"/><path class="cls-25" d="M120.67,80V181.3a3.09,3.09,0,0,1-3.1,3.09H64.41a3.09,3.09,0,0,1-3.09-3.09V80a3.1,3.1,0,0,1,3.09-3.1h53.16A3.1,3.1,0,0,1,120.67,80Z"/><path class="cls-25" d="M120.66,80v7.55H61.32V80a3.1,3.1,0,0,1,3.09-3.1h53.16A3.1,3.1,0,0,1,120.66,80Z"/><path class="cls-9" d="M91,181.73h0a2.9,2.9,0,0,1-2.91-2.9h0A2.91,2.91,0,0,1,91,175.92h0a2.91,2.91,0,0,1,2.91,2.91h0A2.9,2.9,0,0,1,91,181.73Z"/><path class="cls-9" d="M80.25,83.33h0a1.18,1.18,0,0,1-1.18-1.18h0A1.18,1.18,0,0,1,80.25,81h0a1.18,1.18,0,0,1,1.18,1.18h0A1.18,1.18,0,0,1,80.25,83.33Z"/><path class="cls-9" d="M97,82.58H85.2a.43.43,0,0,1-.43-.43.44.44,0,0,1,.43-.44H97a.44.44,0,0,1,.43.44A.43.43,0,0,1,97,82.58Z"/><rect class="cls-10" x="62.42" y="87.57" width="57.14" height="85.26"/><rect class="cls-12" x="67.02" y="132.89" width="10.36" height="3.28"/><rect class="cls-12" x="93.41" y="132.89" width="10.36" height="3.28"/><rect class="cls-12" x="80.21" y="132.89" width="10.36" height="3.28"/><rect class="cls-12" x="73.23" y="138.84" width="41.82" height="11.48"/><rect class="cls-26" x="105.06" y="140.5" width="8.16" height="8.16"/><rect class="cls-14" x="71.07" y="140.99" width="17.66" height="1.57"/><rect class="cls-14" x="71.07" y="143.79" width="17.66" height="1.57"/><rect class="cls-14" x="71.07" y="146.59" width="11.89" height="1.57"/><rect class="cls-12" x="67.1" y="153.18" width="30.56" height="14.34"/><rect class="cls-22" x="71.07" y="155.34" width="15.59" height="1.57"/><rect class="cls-22" x="71.07" y="158.13" width="11.89" height="1.57"/><rect class="cls-22" x="71.07" y="160.93" width="8.02" height="1.57"/><rect class="cls-14" x="80.08" y="160.93" width="4.78" height="1.57"/><rect class="cls-22" x="71.07" y="163.73" width="10.84" height="1.57"/><rect class="cls-27" x="58.91" y="92.87" width="44.95" height="36.68"/><circle class="cls-3" cx="85.48" cy="111.35" r="11.52"/><path class="cls-18" d="M94.21,111.35a8.7,8.7,0,0,1-3.56,7,9,9,0,0,1-2.11,1.15c-.34.12-.69.23-1.05.32-.21.05-.43.09-.65.12a7.64,7.64,0,0,1-1.36.11,8.87,8.87,0,0,1-2.59-.39,8.73,8.73,0,0,1-2.24-15.61,6.9,6.9,0,0,1,.95-.55,8.4,8.4,0,0,1,2.28-.77,9.34,9.34,0,0,1,1.6-.14,8.72,8.72,0,0,1,8.73,8.73Z"/><path class="cls-19" d="M85.48,112.36a1,1,0,0,1-1-1v-5.59a1,1,0,1,1,2,0v5.59A1,1,0,0,1,85.48,112.36Z"/><path class="cls-19" d="M85.48,112.36a1,1,0,0,1-.53-1.87l2.9-1.82a1,1,0,0,1,1.07,1.71L86,112.2A1,1,0,0,1,85.48,112.36Z"/><polygon class="cls-23" points="102.29 87.57 62.42 127.44 62.42 106 80.86 87.57 102.29 87.57"/><polygon class="cls-23" points="117.22 87.57 62.42 142.36 62.42 131.64 106.5 87.57 117.22 87.57"/><g class="cls-28"><rect class="cls-16" x="100.71" y="153.18" width="22.1" height="22.1"/><path class="cls-21" d="M111.76,165.23h0a2.81,2.81,0,0,1-2.81-2.82v-1.69a2.81,2.81,0,0,1,2.81-2.81h0a2.81,2.81,0,0,1,2.82,2.81v1.69A2.82,2.82,0,0,1,111.76,165.23Z"/><path class="cls-21" d="M111.76,163.78a6.63,6.63,0,0,0-6,3.81,2,2,0,0,0,1.78,2.83H116a2,2,0,0,0,1.79-2.83A6.64,6.64,0,0,0,111.76,163.78Z"/></g><rect class="cls-16" x="107.88" y="92.87" width="6.59" height="43.29"/><path class="cls-25" d="M120.23,118.44h0V102.62h0a1.3,1.3,0,0,1,1.3,1.29v13.23A1.3,1.3,0,0,1,120.23,118.44Z"/><path class="cls-24" d="M80.5,96.91l-5.44,16L62.55,149.55l-1.23,3.62v-3.62H58.91V112.87h2.41V100a3.1,3.1,0,0,1,3.09-3.1Z"/><path class="cls-8" d="M31.75,188.53H129a2.07,2.07,0,0,0,2.07-2.07h0a2.07,2.07,0,0,0-2.07-2.07H31.75a2.07,2.07,0,0,0-2.07,2.07h0A2.06,2.06,0,0,0,31.75,188.53Z"/><polygon class="cls-29" points="49.45 180.93 51.19 172.58 47.64 172.05 46.64 180.75 49.45 180.93"/><path class="cls-4" d="M46,179.74a1.23,1.23,0,0,0-.62.26,19.73,19.73,0,0,1-6.82,3.09c-2,.3-2.13,1.3.73,1.3s5-.25,6.24-.22a37.63,37.63,0,0,0,4.08.22c2.41,0,1.66-3.07.79-4.5a1.06,1.06,0,0,0-1.13-.6Z"/><polygon class="cls-29" points="69.37 166.25 62.82 160.78 60.68 163.67 67.89 168.65 69.37 166.25"/><path class="cls-4" d="M66.75,168.28a2.94,2.94,0,0,0,.08,1.66,19.77,19.77,0,0,1,.62,7.45c-.41,2,.51,2.46,1.47-.24s1.42-4.76,1.88-6,.47-.84,1.59-3.77C73,166,70.6,164.65,69,165c-.5.11-.64.21-1,.87S67,167.77,66.75,168.28Z"/><path class="cls-30" d="M48.05,50.28a2.87,2.87,0,0,0-4,.36,104.39,104.39,0,0,1-7.68,8.26c-2.28,2.18-3.61,3.61-5.1,4C27.36,62,20.51,52.18,17,45.66a.76.76,0,0,1-.08-.11l-.18-.28-.17-.19-.21-.21c-.06-.06-.14-.11-.21-.17l-.22-.15-.27-.13-.23-.1-.31-.09-.14,0c-1.34-.31-3.45.58-5.31-.15-2.13-.84-4.9-1.9-4.69-.34A5.24,5.24,0,0,0,8,48c1.56.62,5.61.13,6.94.39,2.71,4.83,8.44,19.16,15.75,20.22a2.67,2.67,0,0,0,.5,0c2.21,0,5.34-1.93,9.36-5.76a106.25,106.25,0,0,0,7.91-8.6A2.87,2.87,0,0,0,48.05,50.28Z"/><path class="cls-31" d="M48.46,27.75c-3.82-2.05-4.41,5.43-3.18,7.88,1.33,2.63,5.24,4.92,6.31,2.79C53,35.64,53.61,30.52,48.46,27.75Z"/><path class="cls-32" d="M48.41,54.31a106.25,106.25,0,0,1-7.91,8.6l-4.17-4A104.39,104.39,0,0,0,44,50.64a2.86,2.86,0,0,1,4.4,3.67Z"/><path class="cls-33" d="M49.43,55.25c-2.44,2.33-5,4.82-7.4,7.26L36.29,57c3-2.94,5.69-5.6,7.65-7.48a4,4,0,0,1,5.49,5.74Z"/><path class="cls-30" d="M60.57,45.58c0,2.53-.28,5.73-1.7,8-1.74,2.77-2.08,3.33-2.12,3.39A3.38,3.38,0,0,1,51,53.48s.27-.47,2.2-3.52a6.48,6.48,0,0,0,.6-2.69,22.65,22.65,0,0,0-.17-4.51,3.38,3.38,0,0,1,6.69-1A30.82,30.82,0,0,1,60.57,45.58Z"/><path class="cls-7" d="M68.85,51.13c-1.68,9.61-4.95,33.72-4.24,43.42H40.53S42,58.82,44.26,50.11a2.37,2.37,0,0,1,2.3-1.76H66.5A2.38,2.38,0,0,1,68.85,51.13Z"/><path class="cls-4" d="M63.57,110.23s2.93-5.38,1-15.68H40.53a154.91,154.91,0,0,0,.21,15.68Z"/><path class="cls-4" d="M68.49,164l-3.6,3.48a54.47,54.47,0,0,1-8-5.38,84.25,84.25,0,0,1-9.25-8.35c-4.22-4.45-7.64-9.3-8.28-13.53-1.45-9.6,1.26-32.15,1.6-34.62.37-2.64,3.06-3.86,5.69-3.49s5.18,2.93,4.82,5.56c-.88,6.33-3.64,24.15-2.59,31.12a7,7,0,0,0,.28,1.12c1.08,3.16,4.67,8.07,8.86,13C61.44,157,65.28,161,68.49,164Z"/><path class="cls-34" d="M58,152.94c-.34,3-.73,6.15-1.13,9.2a84.25,84.25,0,0,1-9.25-8.35c.41-4.53.83-8.72,1.2-11.43.11-.78.21-1.58.32-2.41C50.23,143.11,53.82,148,58,152.94Z"/><path class="cls-4" d="M45.73,176.73c.05-.26,1.88-25.4,3.09-34.37,1.93-14.16,4.86-36.92,4.9-37.16.45-2.62,4.25-4.15,6.87-3.69a4.82,4.82,0,0,1,3.93,5.56c0,.23-3.95,23.13-6.82,37.29-.81,10-6.13,32.38-6.34,33.47"/><path class="cls-32" d="M60.57,45.58a10.7,10.7,0,0,1-5.86,1.74,7.72,7.72,0,0,1-1,0,22.65,22.65,0,0,0-.17-4.51,3.38,3.38,0,0,1,6.69-1A30.82,30.82,0,0,1,60.57,45.58Z"/><path class="cls-30" d="M45.39,34.92c0,5.94,3.25,10.76,9.12,10.76,4.63,0,11.76-4.82,11.76-10.76A10.76,10.76,0,0,0,55.51,24.16C49.57,24.16,45.39,29,45.39,34.92Z"/><path class="cls-30" d="M82,74.87c.07-2.44-3-8.25-6.58-14-2.19-3.59-4.55-7.18-6.43-10a2.87,2.87,0,1,0-4.75,3.21c2.14,3.18,4.38,6.65,6.34,9.85a71,71,0,0,1,5,8.88,78.82,78.82,0,0,1-17.41,3.88,2.82,2.82,0,0,0-2,1h0a19.31,19.31,0,0,0-3.14,5.77c-.48,1.51-1.08,4.78.48,4.55a12.06,12.06,0,0,0,3.16-1.19c1.19-.41,1.42-.4,1.81-1.61s.31-4.7.78-5.42C81.18,77.76,82,76.88,82,74.87Z"/><path class="cls-35" d="M50.32,177.83l-.49-.08c0-.25,3.74-23,5.87-34s5.88-37.27,5.92-37.53c1-3.76.81-7.2.33-12l.5,0c.39,4,.8,8.08-.34,12.17,0,.23-3.79,26.48-5.92,37.52S50.36,177.58,50.32,177.83Z"/><path class="cls-31" d="M65,26.33c-3.19-2.94-5.63,4.16-5,6.83.63,2.88,3.84,6.07,5.42,4.27C67.41,35.1,69.29,30.28,65,26.33Z"/><path class="cls-31" d="M54.68,45.19c2-1.56-1.88-3.57-3.46-3.48s-3.79,1.66-2.91,2.72A4.43,4.43,0,0,0,54.68,45.19Z"/><path class="cls-31" d="M62.84,28.09C60.23,30,46.72,30.24,44.45,26.91a6,6,0,0,0,2.68-.12s-2.6-1.07-3.51-2.31a15.88,15.88,0,0,0,6.23-1.06c3-1.25,9.1-3,13,.41S62.84,28.09,62.84,28.09Z"/><path class="cls-30" d="M67,38.06a3.83,3.83,0,0,1-1.89,2.61A1.52,1.52,0,0,1,62.9,39l.67-3.4a1.52,1.52,0,0,1,2.65-.7A3.87,3.87,0,0,1,67,38.06Z"/><path class="cls-30" d="M50.75,48.35c-.6,2.09,1.39,3.33,4.86,2.84a16.93,16.93,0,0,0,7-2.84Z"/><path class="cls-32" d="M75.44,60.83l-4.84,3.1c-2-3.2-4.2-6.67-6.34-9.85A2.87,2.87,0,1,1,69,50.87C70.89,53.65,73.25,57.24,75.44,60.83Z"/><path class="cls-7" d="M63.35,54.66c1.94,2.76,3.93,5.7,5.84,8.56l6.71-4.3c-2.32-3.46-4.49-6.6-6.05-8.82a4,4,0,0,0-6.5,4.56Z"/><rect class="cls-35" x="51.64" y="94.17" width="0.5" height="16.25"/><path class="cls-35" d="M51.89,107.75A2.75,2.75,0,0,1,49.14,105V94.17h.5V105a2.25,2.25,0,0,0,2.25,2.24Z"/><rect class="cls-22" x="5.98" y="28.01" width="12.13" height="12.13" transform="translate(-23.74 29.05) rotate(-62.54)"/><polygon class="cls-22" points="2 38.76 0 37.72 1.04 35.72 1.93 36.18 1.35 37.29 2.46 37.87 2 38.76"/><polygon class="cls-22" points="23 32.46 22.12 32 22.7 30.89 21.58 30.31 22.04 29.43 24.04 30.46 23 32.46"/><rect class="cls-7" x="16.56" y="34.91" width="7.54" height="5.34" transform="translate(-2.03 1.17) rotate(-3.14)"/><rect class="cls-20" x="13.64" y="22.66" width="4.13" height="4.13" transform="translate(-13.57 23.62) rotate(-55.41)"/></g></g></g></svg>